<svg width="121" height="47" viewBox="0 0 121 47" fill="none" xmlns="http://www.w3.org/2000/svg">
<path d="M7.42021 0.941015C7.42021 0.941015 25.872 -1.73282 35.5745 1.93384C43.2733 4.84328 53.7487 11.8619 53.7487 11.8619C53.7487 11.8619 70.7673 10.0568 81.7979 15.2916C85.8665 17.2225 86 24.8587 86 24.8587V43H7L7.42021 0.941015Z" fill="#1B357E"/>
<path d="M8 1C8 1 25.8931 2.15009 34.5889 5.59873C41.4888 8.33517 50.8773 14.9365 50.8773 14.9365C50.8773 14.9365 68.3747 12.8811 78.2607 17.8047C81.9071 19.6207 82.6493 21.6472 82.6493 21.6472L84.8383 27.1604L90 45L9.35596 43.5655L8 1Z" fill="white"/>
<rect width="10" height="47" fill="white"/>
<path d="M10.7656 1.82227L19.7505 2.90136L28.0478 4.46132C28.0478 4.46132 33.4191 5.27213 38.9717 8.9882C44.5244 12.7043 49.0016 15.1643 49.0016 15.1643L18.6139 15.1643L10.7656 1.82227Z" fill="#1B357E"/>
<path d="M8 1L18.2975 3.01695L26.5124 4.79661C26.5124 4.79661 31.8347 5.74576 37.2727 9.66102C42.7107 13.5763 50 15 50 15L26.5124 12.9831L18.2975 15L8 1Z" fill="white"/>
<path d="M22.7056 33.412C23.8162 33.412 24.7002 33.7747 25.3576 34.5C26.0262 35.214 26.3606 36.2 26.3606 37.458V43H23.4706V37.849C23.4706 37.2143 23.3062 36.7213 22.9776 36.37C22.6489 36.0187 22.2069 35.843 21.6516 35.843C21.0962 35.843 20.6542 36.0187 20.3256 36.37C19.9969 36.7213 19.8326 37.2143 19.8326 37.849V43H16.9256V33.514H19.8326V34.772C20.1272 34.3527 20.5239 34.024 21.0226 33.786C21.5212 33.5367 22.0822 33.412 22.7056 33.412ZM32.6987 43.136C31.7693 43.136 30.9307 42.9377 30.1827 42.541C29.446 42.1443 28.8623 41.5777 28.4317 40.841C28.0123 40.1043 27.8027 39.243 27.8027 38.257C27.8027 37.2823 28.018 36.4267 28.4487 35.69C28.8793 34.942 29.4687 34.3697 30.2167 33.973C30.9647 33.5763 31.8033 33.378 32.7327 33.378C33.662 33.378 34.5007 33.5763 35.2487 33.973C35.9967 34.3697 36.586 34.942 37.0167 35.69C37.4473 36.4267 37.6627 37.2823 37.6627 38.257C37.6627 39.2317 37.4417 40.093 36.9997 40.841C36.569 41.5777 35.974 42.1443 35.2147 42.541C34.4667 42.9377 33.628 43.136 32.6987 43.136ZM32.6987 40.62C33.254 40.62 33.7243 40.416 34.1097 40.008C34.5063 39.6 34.7047 39.0163 34.7047 38.257C34.7047 37.4977 34.512 36.914 34.1267 36.506C33.7527 36.098 33.288 35.894 32.7327 35.894C32.166 35.894 31.6957 36.098 31.3217 36.506C30.9477 36.9027 30.7607 37.4863 30.7607 38.257C30.7607 39.0163 30.942 39.6 31.3047 40.008C31.6787 40.416 32.1433 40.62 32.6987 40.62ZM44.4919 40.535V43H43.0129C41.9589 43 41.1372 42.745 40.5479 42.235C39.9585 41.7137 39.6639 40.8693 39.6639 39.702V35.928H38.5079V33.514H39.6639V31.202H42.5709V33.514H44.4749V35.928H42.5709V39.736C42.5709 40.0193 42.6389 40.2233 42.7749 40.348C42.9109 40.4727 43.1375 40.535 43.4549 40.535H44.4919ZM47.5731 32.528C47.0631 32.528 46.6438 32.3807 46.3151 32.086C45.9978 31.78 45.8391 31.406 45.8391 30.964C45.8391 30.5107 45.9978 30.1367 46.3151 29.842C46.6438 29.536 47.0631 29.383 47.5731 29.383C48.0718 29.383 48.4798 29.536 48.7971 29.842C49.1258 30.1367 49.2901 30.5107 49.2901 30.964C49.2901 31.406 49.1258 31.78 48.7971 32.086C48.4798 32.3807 48.0718 32.528 47.5731 32.528ZM49.0181 33.514V43H46.1111V33.514H49.0181ZM55.4428 43.136C54.5135 43.136 53.6748 42.9377 52.9268 42.541C52.1901 42.1443 51.6065 41.5777 51.1758 40.841C50.7565 40.1043 50.5468 39.243 50.5468 38.257C50.5468 37.2823 50.7621 36.4267 51.1928 35.69C51.6235 34.942 52.2128 34.3697 52.9608 33.973C53.7088 33.5763 54.5475 33.378 55.4768 33.378C56.4061 33.378 57.2448 33.5763 57.9928 33.973C58.7408 34.3697 59.3301 34.942 59.7608 35.69C60.1915 36.4267 60.4068 37.2823 60.4068 38.257C60.4068 39.2317 60.1858 40.093 59.7438 40.841C59.3131 41.5777 58.7181 42.1443 57.9588 42.541C57.2108 42.9377 56.3721 43.136 55.4428 43.136ZM55.4428 40.62C55.9981 40.62 56.4685 40.416 56.8538 40.008C57.2505 39.6 57.4488 39.0163 57.4488 38.257C57.4488 37.4977 57.2561 36.914 56.8708 36.506C56.4968 36.098 56.0321 35.894 55.4768 35.894C54.9101 35.894 54.4398 36.098 54.0658 36.506C53.6918 36.9027 53.5048 37.4863 53.5048 38.257C53.5048 39.0163 53.6861 39.6 54.0488 40.008C54.4228 40.416 54.8875 40.62 55.4428 40.62ZM67.729 33.412C68.8397 33.412 69.7237 33.7747 70.381 34.5C71.0497 35.214 71.384 36.2 71.384 37.458V43H68.494V37.849C68.494 37.2143 68.3297 36.7213 68.001 36.37C67.6724 36.0187 67.2304 35.843 66.675 35.843C66.1197 35.843 65.6777 36.0187 65.349 36.37C65.0204 36.7213 64.856 37.2143 64.856 37.849V43H61.949V33.514H64.856V34.772C65.1507 34.3527 65.5474 34.024 66.046 33.786C66.5447 33.5367 67.1057 33.412 67.729 33.412Z" fill="#121212"/>
<path d="M76.3111 35.095C76.6511 34.5737 77.0761 34.1657 77.5861 33.871C78.0961 33.565 78.6628 33.412 79.2861 33.412V36.489H78.4871C77.7618 36.489 77.2178 36.6477 76.8551 36.965C76.4924 37.271 76.3111 37.815 76.3111 38.597V43H73.4041V33.514H76.3111V35.095ZM82.1376 32.528C81.6276 32.528 81.2082 32.3807 80.8796 32.086C80.5622 31.78 80.4036 31.406 80.4036 30.964C80.4036 30.5107 80.5622 30.1367 80.8796 29.842C81.2082 29.536 81.6276 29.383 82.1376 29.383C82.6362 29.383 83.0442 29.536 83.3616 29.842C83.6902 30.1367 83.8546 30.5107 83.8546 30.964C83.8546 31.406 83.6902 31.78 83.3616 32.086C83.0442 32.3807 82.6362 32.528 82.1376 32.528ZM83.5826 33.514V43H80.6756V33.514H83.5826ZM85.1113 38.24C85.1113 37.2653 85.2926 36.4097 85.6553 35.673C86.0293 34.9363 86.5336 34.3697 87.1683 33.973C87.8029 33.5763 88.5113 33.378 89.2933 33.378C89.9166 33.378 90.4833 33.5083 90.9933 33.769C91.5146 34.0297 91.9226 34.381 92.2173 34.823V30.42H95.1243V43H92.2173V41.64C91.9453 42.0933 91.5543 42.456 91.0443 42.728C90.5456 43 89.9619 43.136 89.2933 43.136C88.5113 43.136 87.8029 42.9377 87.1683 42.541C86.5336 42.133 86.0293 41.5607 85.6553 40.824C85.2926 40.076 85.1113 39.2147 85.1113 38.24ZM92.2173 38.257C92.2173 37.5317 92.0133 36.9593 91.6053 36.54C91.2086 36.1207 90.7213 35.911 90.1433 35.911C89.5653 35.911 89.0723 36.1207 88.6643 36.54C88.2676 36.948 88.0693 37.5147 88.0693 38.24C88.0693 38.9653 88.2676 39.5433 88.6643 39.974C89.0723 40.3933 89.5653 40.603 90.1433 40.603C90.7213 40.603 91.2086 40.3933 91.6053 39.974C92.0133 39.5547 92.2173 38.9823 92.2173 38.257ZM106.169 38.104C106.169 38.376 106.152 38.6593 106.118 38.954H99.5393C99.5847 39.5433 99.7717 39.9967 100.1 40.314C100.44 40.62 100.854 40.773 101.341 40.773C102.067 40.773 102.571 40.467 102.854 39.855H105.948C105.79 40.4783 105.501 41.0393 105.081 41.538C104.673 42.0367 104.158 42.4277 103.534 42.711C102.911 42.9943 102.214 43.136 101.443 43.136C100.514 43.136 99.6867 42.9377 98.9613 42.541C98.236 42.1443 97.6693 41.5777 97.2613 40.841C96.8533 40.1043 96.6493 39.243 96.6493 38.257C96.6493 37.271 96.8477 36.4097 97.2443 35.673C97.6523 34.9363 98.219 34.3697 98.9443 33.973C99.6697 33.5763 100.503 33.378 101.443 33.378C102.361 33.378 103.177 33.5707 103.891 33.956C104.605 34.3413 105.161 34.891 105.557 35.605C105.965 36.319 106.169 37.152 106.169 38.104ZM103.194 37.339C103.194 36.8403 103.024 36.4437 102.684 36.149C102.344 35.8543 101.919 35.707 101.409 35.707C100.922 35.707 100.508 35.8487 100.168 36.132C99.8397 36.4153 99.6357 36.8177 99.5563 37.339H103.194ZM111.562 43.136C110.735 43.136 109.998 42.9943 109.352 42.711C108.706 42.4277 108.196 42.0423 107.822 41.555C107.448 41.0563 107.238 40.501 107.193 39.889H110.066C110.1 40.2177 110.253 40.484 110.525 40.688C110.797 40.892 111.131 40.994 111.528 40.994C111.891 40.994 112.168 40.926 112.361 40.79C112.565 40.6427 112.667 40.4557 112.667 40.229C112.667 39.957 112.525 39.7587 112.242 39.634C111.959 39.498 111.5 39.3507 110.865 39.192C110.185 39.0333 109.618 38.869 109.165 38.699C108.712 38.5177 108.321 38.24 107.992 37.866C107.663 37.4807 107.499 36.965 107.499 36.319C107.499 35.775 107.646 35.282 107.941 34.84C108.247 34.3867 108.689 34.0297 109.267 33.769C109.856 33.5083 110.553 33.378 111.358 33.378C112.548 33.378 113.483 33.6727 114.163 34.262C114.854 34.8513 115.251 35.6333 115.353 36.608H112.667C112.622 36.2793 112.474 36.0187 112.225 35.826C111.987 35.6333 111.67 35.537 111.273 35.537C110.933 35.537 110.672 35.605 110.491 35.741C110.31 35.8657 110.219 36.0413 110.219 36.268C110.219 36.54 110.361 36.744 110.644 36.88C110.939 37.016 111.392 37.152 112.004 37.288C112.707 37.4693 113.279 37.6507 113.721 37.832C114.163 38.002 114.548 38.2853 114.877 38.682C115.217 39.0673 115.393 39.5887 115.404 40.246C115.404 40.8013 115.245 41.3 114.928 41.742C114.622 42.1727 114.174 42.5127 113.585 42.762C113.007 43.0113 112.333 43.136 111.562 43.136Z" fill="#1B357E"/>
</svg>
