<svg width="142" height="115" viewBox="0 0 142 115" fill="none" xmlns="http://www.w3.org/2000/svg">
<path d="M135.125 98.0293L90.2857 57.5293M51.7143 57.5293L6.87523 98.0293M3.5 23.7793L58.6132 62.3585C63.0761 65.4826 65.3076 67.0446 67.7348 67.6496C69.8788 68.1841 72.1212 68.1841 74.2652 67.6496C76.6924 67.0446 78.9239 65.4826 83.3868 62.3585L138.5 23.7793M35.9 111.529H106.1C117.441 111.529 123.112 111.529 127.443 109.322C131.254 107.381 134.351 104.283 136.293 100.473C138.5 96.1409 138.5 90.4704 138.5 79.1293V35.9293C138.5 24.5882 138.5 18.9177 136.293 14.586C134.351 10.7757 131.254 7.67785 127.443 5.73641C123.112 3.5293 117.441 3.5293 106.1 3.5293H35.9C24.5589 3.5293 18.8884 3.5293 14.5567 5.73641C10.7464 7.67785 7.64855 10.7757 5.70712 14.586C3.5 18.9177 3.5 24.5882 3.5 35.9293V79.1293C3.5 90.4704 3.5 96.1409 5.70712 100.473C7.64855 104.283 10.7464 107.381 14.5567 109.322C18.8884 111.529 24.5589 111.529 35.9 111.529Z" stroke="#10B981" stroke-width="6" stroke-linecap="round" stroke-linejoin="round"/>
</svg>
