<svg width="330" height="129" viewBox="0 0 330 129" fill="none" xmlns="http://www.w3.org/2000/svg">
<path d="M20.2079 3.06276C20.2079 3.06276 70.4594 -4.21916 96.8833 5.76662C117.85 13.6902 146.379 32.8048 146.379 32.8048C146.379 32.8048 192.728 27.8888 222.768 42.1453C233.849 47.4038 234.212 68.2002 234.212 68.2002V117.606H19.0635L20.2079 3.06276Z" fill="#1B357E"/>
<path d="M21.7871 3.22266C21.7871 3.22266 70.5172 6.35483 94.1993 15.7468C112.991 23.1993 138.559 41.1773 138.559 41.1773C138.559 41.1773 186.212 35.5798 213.135 48.9886C223.066 53.9344 225.087 59.4535 225.087 59.4535L231.049 74.4681L245.106 123.052L25.4799 119.146L21.7871 3.22266Z" fill="#D5DBE8"/>
<rect y="0.5" width="27.234" height="128" fill="#D5DBE8"/>
<path d="M29.3223 5.46094L53.7916 8.39974L76.3886 12.6481C76.3886 12.6481 91.0168 14.8563 106.139 24.9767C121.261 35.097 133.454 41.7967 133.454 41.7967L50.6963 41.7967L29.3223 5.46094Z" fill="#1B357E"/>
<path d="M21.7871 3.22266L49.8314 8.71562L72.2038 13.5624C72.2038 13.5624 86.6987 16.1473 101.509 26.8101C116.318 37.4729 136.17 41.3503 136.17 41.3503L72.2038 35.8573L49.8314 41.3503L21.7871 3.22266Z" fill="#D5DBE8"/>
<path d="M57.5012 91.7874C60.6372 91.7874 63.1332 92.8114 64.9892 94.8594C66.8772 96.8754 67.8212 99.6594 67.8212 103.211V118.859H59.6612V104.315C59.6612 102.523 59.1972 101.131 58.2692 100.139C57.3412 99.1474 56.0932 98.6514 54.5252 98.6514C52.9572 98.6514 51.7092 99.1474 50.7812 100.139C49.8532 101.131 49.3892 102.523 49.3892 104.315V118.859H41.1812V92.0754H49.3892V95.6274C50.2212 94.4434 51.3412 93.5154 52.7492 92.8434C54.1572 92.1394 55.7412 91.7874 57.5012 91.7874ZM85.717 119.243C83.093 119.243 80.725 118.683 78.613 117.563C76.533 116.443 74.885 114.843 73.669 112.763C72.485 110.683 71.893 108.251 71.893 105.467C71.893 102.715 72.501 100.299 73.717 98.2194C74.933 96.1074 76.597 94.4914 78.709 93.3714C80.821 92.2514 83.189 91.6914 85.813 91.6914C88.437 91.6914 90.805 92.2514 92.917 93.3714C95.029 94.4914 96.693 96.1074 97.909 98.2194C99.125 100.299 99.733 102.715 99.733 105.467C99.733 108.219 99.109 110.651 97.861 112.763C96.645 114.843 94.965 116.443 92.821 117.563C90.709 118.683 88.341 119.243 85.717 119.243ZM85.717 112.139C87.285 112.139 88.613 111.563 89.701 110.411C90.821 109.259 91.381 107.611 91.381 105.467C91.381 103.323 90.837 101.675 89.749 100.523C88.693 99.3714 87.381 98.7954 85.813 98.7954C84.213 98.7954 82.885 99.3714 81.829 100.523C80.773 101.643 80.245 103.291 80.245 105.467C80.245 107.611 80.757 109.259 81.781 110.411C82.837 111.563 84.149 112.139 85.717 112.139ZM119.015 111.899V118.859H114.839C111.863 118.859 109.543 118.139 107.879 116.699C106.215 115.227 105.383 112.843 105.383 109.547V98.8914H102.119V92.0754H105.383V85.5474H113.591V92.0754H118.967V98.8914H113.591V109.643C113.591 110.443 113.783 111.019 114.167 111.371C114.551 111.723 115.191 111.899 116.087 111.899H119.015ZM127.715 89.2914C126.275 89.2914 125.091 88.8754 124.163 88.0434C123.267 87.1794 122.819 86.1234 122.819 84.8754C122.819 83.5954 123.267 82.5394 124.163 81.7074C125.091 80.8434 126.275 80.4114 127.715 80.4114C129.123 80.4114 130.275 80.8434 131.171 81.7074C132.099 82.5394 132.563 83.5954 132.563 84.8754C132.563 86.1234 132.099 87.1794 131.171 88.0434C130.275 88.8754 129.123 89.2914 127.715 89.2914ZM131.795 92.0754V118.859H123.587V92.0754H131.795ZM149.936 119.243C147.312 119.243 144.944 118.683 142.832 117.563C140.752 116.443 139.104 114.843 137.888 112.763C136.704 110.683 136.112 108.251 136.112 105.467C136.112 102.715 136.72 100.299 137.936 98.2194C139.152 96.1074 140.816 94.4914 142.928 93.3714C145.04 92.2514 147.408 91.6914 150.032 91.6914C152.656 91.6914 155.024 92.2514 157.136 93.3714C159.248 94.4914 160.912 96.1074 162.128 98.2194C163.344 100.299 163.952 102.715 163.952 105.467C163.952 108.219 163.328 110.651 162.08 112.763C160.864 114.843 159.184 116.443 157.04 117.563C154.928 118.683 152.56 119.243 149.936 119.243ZM149.936 112.139C151.504 112.139 152.832 111.563 153.92 110.411C155.04 109.259 155.6 107.611 155.6 105.467C155.6 103.323 155.056 101.675 153.968 100.523C152.912 99.3714 151.6 98.7954 150.032 98.7954C148.432 98.7954 147.104 99.3714 146.048 100.523C144.992 101.643 144.464 103.291 144.464 105.467C144.464 107.611 144.976 109.259 146 110.411C147.056 111.563 148.368 112.139 149.936 112.139ZM184.626 91.7874C187.762 91.7874 190.258 92.8114 192.114 94.8594C194.002 96.8754 194.946 99.6594 194.946 103.211V118.859H186.786V104.315C186.786 102.523 186.322 101.131 185.394 100.139C184.466 99.1474 183.218 98.6514 181.65 98.6514C180.082 98.6514 178.834 99.1474 177.906 100.139C176.978 101.131 176.514 102.523 176.514 104.315V118.859H168.306V92.0754H176.514V95.6274C177.346 94.4434 178.466 93.5154 179.874 92.8434C181.282 92.1394 182.866 91.7874 184.626 91.7874Z" fill="#121212"/>
<path d="M208.858 96.5394C209.818 95.0674 211.018 93.9154 212.458 93.0834C213.898 92.2194 215.498 91.7874 217.258 91.7874V100.475H215.002C212.954 100.475 211.418 100.923 210.394 101.819C209.37 102.683 208.858 104.219 208.858 106.427V118.859H200.65V92.0754H208.858V96.5394ZM225.309 89.2914C223.869 89.2914 222.685 88.8754 221.757 88.0434C220.861 87.1794 220.413 86.1234 220.413 84.8754C220.413 83.5954 220.861 82.5394 221.757 81.7074C222.685 80.8434 223.869 80.4114 225.309 80.4114C226.717 80.4114 227.869 80.8434 228.765 81.7074C229.693 82.5394 230.157 83.5954 230.157 84.8754C230.157 86.1234 229.693 87.1794 228.765 88.0434C227.869 88.8754 226.717 89.2914 225.309 89.2914ZM229.389 92.0754V118.859H221.181V92.0754H229.389ZM233.705 105.419C233.705 102.667 234.217 100.251 235.241 98.1714C236.297 96.0914 237.721 94.4914 239.513 93.3714C241.305 92.2514 243.305 91.6914 245.513 91.6914C247.273 91.6914 248.873 92.0594 250.313 92.7954C251.785 93.5314 252.937 94.5234 253.769 95.7714V83.3394H261.977V118.859H253.769V115.019C253.001 116.299 251.897 117.323 250.457 118.091C249.049 118.859 247.401 119.243 245.513 119.243C243.305 119.243 241.305 118.683 239.513 117.563C237.721 116.411 236.297 114.795 235.241 112.715C234.217 110.603 233.705 108.171 233.705 105.419ZM253.769 105.467C253.769 103.419 253.193 101.803 252.041 100.619C250.921 99.4354 249.545 98.8434 247.913 98.8434C246.281 98.8434 244.889 99.4354 243.737 100.619C242.617 101.771 242.057 103.371 242.057 105.419C242.057 107.467 242.617 109.099 243.737 110.315C244.889 111.499 246.281 112.091 247.913 112.091C249.545 112.091 250.921 111.499 252.041 110.315C253.193 109.131 253.769 107.515 253.769 105.467ZM293.164 105.035C293.164 105.803 293.116 106.603 293.02 107.435H274.444C274.572 109.099 275.1 110.379 276.028 111.275C276.988 112.139 278.156 112.571 279.532 112.571C281.58 112.571 283.004 111.707 283.804 109.979H292.54C292.092 111.739 291.276 113.323 290.092 114.731C288.94 116.139 287.484 117.243 285.724 118.043C283.964 118.843 281.996 119.243 279.82 119.243C277.196 119.243 274.86 118.683 272.812 117.563C270.764 116.443 269.164 114.843 268.012 112.763C266.86 110.683 266.284 108.251 266.284 105.467C266.284 102.683 266.844 100.251 267.964 98.1714C269.116 96.0914 270.716 94.4914 272.764 93.3714C274.812 92.2514 277.164 91.6914 279.82 91.6914C282.412 91.6914 284.716 92.2354 286.732 93.3234C288.748 94.4114 290.316 95.9634 291.436 97.9794C292.588 99.9954 293.164 102.347 293.164 105.035ZM284.764 102.875C284.764 101.467 284.284 100.347 283.324 99.5154C282.364 98.6834 281.164 98.2674 279.724 98.2674C278.348 98.2674 277.18 98.6674 276.22 99.4674C275.292 100.267 274.716 101.403 274.492 102.875H284.764ZM308.39 119.243C306.054 119.243 303.974 118.843 302.15 118.043C300.326 117.243 298.886 116.155 297.83 114.779C296.774 113.371 296.182 111.803 296.054 110.075H304.166C304.262 111.003 304.694 111.755 305.462 112.331C306.23 112.907 307.174 113.195 308.294 113.195C309.318 113.195 310.102 113.003 310.646 112.619C311.222 112.203 311.51 111.675 311.51 111.035C311.51 110.267 311.11 109.707 310.31 109.355C309.51 108.971 308.214 108.555 306.422 108.107C304.502 107.659 302.902 107.195 301.622 106.715C300.342 106.203 299.238 105.419 298.31 104.363C297.382 103.275 296.918 101.819 296.918 99.9954C296.918 98.4594 297.334 97.0674 298.166 95.8194C299.03 94.5394 300.278 93.5314 301.91 92.7954C303.574 92.0594 305.542 91.6914 307.814 91.6914C311.174 91.6914 313.814 92.5234 315.734 94.1874C317.686 95.8514 318.806 98.0594 319.094 100.811H311.51C311.382 99.8834 310.966 99.1474 310.262 98.6034C309.59 98.0594 308.694 97.7874 307.574 97.7874C306.614 97.7874 305.878 97.9794 305.366 98.3634C304.854 98.7154 304.598 99.2114 304.598 99.8514C304.598 100.619 304.998 101.195 305.798 101.579C306.63 101.963 307.91 102.347 309.638 102.731C311.622 103.243 313.238 103.755 314.486 104.267C315.734 104.747 316.822 105.547 317.75 106.667C318.71 107.755 319.206 109.227 319.238 111.083C319.238 112.651 318.79 114.059 317.894 115.307C317.03 116.523 315.766 117.483 314.102 118.187C312.47 118.891 310.566 119.243 308.39 119.243Z" fill="#1B357E"/>
</svg>
