<svg width="197" height="36" viewBox="0 0 197 36" fill="none" xmlns="http://www.w3.org/2000/svg">
<path d="M56.0949 4.78125V23.0944C56.0949 23.4764 56.1818 23.7726 56.3531 23.9908C56.5244 24.2091 56.7694 24.3156 57.0804 24.3156H58.5849V27.3115H56.7062C55.5047 27.3115 54.5719 26.94 53.9026 26.1994C53.2334 25.4589 52.9014 24.4144 52.9014 23.0658V4.78125H56.0949Z" fill="black"/>
<path d="M68.421 27.4676C66.292 27.4676 64.6425 26.857 63.4726 25.6384C62.3027 24.4172 61.7178 22.7023 61.7178 20.4885V17.8797C61.7178 15.6867 62.3027 13.9874 63.4726 12.7844C64.6425 11.5787 66.292 10.9785 68.421 10.9785C70.55 10.9785 72.1995 11.5813 73.3694 12.7844C74.5393 13.99 75.1243 15.6867 75.1243 17.8797V20.5352C75.1243 22.7386 74.5393 24.4458 73.3694 25.654C72.1995 26.8648 70.55 27.4676 68.421 27.4676ZM68.421 24.4717C69.5382 24.4717 70.4025 24.1262 71.0138 23.4376C71.6251 22.749 71.9307 21.7799 71.9307 20.5352V17.8797C71.9307 16.6351 71.6251 15.6711 71.0138 14.993C70.4025 14.3148 69.5382 13.9744 68.421 13.9744C67.3038 13.9744 66.4527 14.3148 65.8362 14.993C65.2196 15.6711 64.9113 16.6351 64.9113 17.8797V20.5352C64.9113 21.7799 65.2196 22.749 65.8362 23.4376C66.4527 24.1288 67.3144 24.4717 68.421 24.4717Z" fill="black"/>
<path d="M84.8153 27.511C83.0209 27.511 81.635 26.942 80.6574 25.8039C79.6798 24.6659 79.1924 23.0627 79.1924 20.9944V17.458C79.1924 15.3794 79.6693 13.771 80.6258 12.6329C81.5796 11.4948 82.9261 10.9258 84.6572 10.9258C85.6163 10.9258 86.4964 11.1726 87.2948 11.6663C88.0932 12.16 88.7387 12.8564 89.2288 13.7502L88.8994 17.0241C88.8994 16.3459 88.773 15.7639 88.5226 15.278C88.2723 14.7947 87.9087 14.4258 87.4344 14.1737C86.9601 13.9217 86.3831 13.7944 85.7033 13.7944C84.6493 13.7944 83.8325 14.1192 83.2528 14.7661C82.6731 15.4157 82.3833 16.3252 82.3833 17.4996V20.9892C82.3833 22.1532 82.6731 23.0497 83.2528 23.6837C83.8325 24.3177 84.6493 24.6321 85.7033 24.6321C86.3805 24.6321 86.9575 24.5022 87.4344 24.2371C87.9087 23.9747 88.2723 23.5953 88.5226 23.1016C88.773 22.608 88.8994 22.0155 88.8994 21.327L89.1181 24.71C88.8257 25.4298 88.3224 26.0768 87.6083 26.6484C86.8943 27.22 85.9615 27.5058 84.8127 27.5058L84.8153 27.511ZM85.1131 33.7497C83.8905 33.7497 82.797 33.5262 81.8326 33.0793C80.8656 32.6324 80.1172 32.001 79.585 31.1877L81.7456 29.2571C82.1619 29.8236 82.6626 30.2601 83.2423 30.5693C83.8219 30.8785 84.4306 31.0318 85.0656 31.0318C86.2882 31.0318 87.2315 30.6992 87.9008 30.0366C88.5701 29.3715 88.9021 28.4335 88.9021 27.2174V11.2038H92.0956V26.7549C92.0956 28.9791 91.4869 30.6992 90.2722 31.9204C89.0549 33.1417 87.3369 33.7497 85.1131 33.7497Z" fill="black"/>
<path d="M103.184 27.4676C101.055 27.4676 99.4052 26.857 98.2353 25.6384C97.0654 24.4172 96.4805 22.7023 96.4805 20.4885V17.8797C96.4805 15.6867 97.0654 13.9874 98.2353 12.7844C99.4052 11.5787 101.055 10.9785 103.184 10.9785C105.313 10.9785 106.962 11.5813 108.132 12.7844C109.302 13.99 109.887 15.6867 109.887 17.8797V20.5352C109.887 22.7386 109.302 24.4458 108.132 25.654C106.962 26.8648 105.313 27.4676 103.184 27.4676ZM103.184 24.4717C104.301 24.4717 105.165 24.1262 105.776 23.4376C106.388 22.749 106.693 21.7799 106.693 20.5352V17.8797C106.693 16.6351 106.388 15.6711 105.776 14.993C105.165 14.3148 104.301 13.9744 103.184 13.9744C102.067 13.9744 101.215 14.3148 100.599 14.993C99.9823 15.6711 99.674 16.6351 99.674 17.8797V20.5352C99.674 21.7799 99.9823 22.749 100.599 23.4376C101.215 24.1288 102.077 24.4717 103.184 24.4717Z" fill="black"/>
<path d="M114.427 7.9324V4.7832H117.62V7.9324H114.427ZM114.427 27.2355V11.2063H117.62V27.2355H114.427Z" fill="black"/>
<path d="M122.477 33.7504V11.2046H125.67V33.7504H122.477ZM129.757 27.465C128.745 27.465 127.862 27.226 127.111 26.7479C126.36 26.2698 125.807 25.5916 125.451 24.7186L125.67 21.3667C125.67 22.0553 125.797 22.6425 126.047 23.1258C126.297 23.6091 126.661 23.9807 127.135 24.2379C127.609 24.4951 128.186 24.625 128.866 24.625C129.92 24.625 130.737 24.308 131.317 23.6766C131.896 23.0426 132.186 22.1514 132.186 20.9977V17.5238C132.186 16.3493 131.896 15.4399 131.317 14.7903C130.737 14.1407 129.92 13.8185 128.866 13.8185C128.186 13.8185 127.612 13.9432 127.135 14.1901C126.661 14.4369 126.297 14.7981 126.047 15.271C125.797 15.7439 125.67 16.3207 125.67 17.0015L125.341 13.9121C125.831 12.9766 126.474 12.2517 127.267 11.7424C128.06 11.2332 128.943 10.9785 129.912 10.9785C131.657 10.9785 133.003 11.5476 133.952 12.6856C134.9 13.8237 135.377 15.4321 135.377 17.5108V21.0003C135.377 23.0478 134.887 24.6406 133.904 25.7709C132.924 26.9038 131.541 27.4702 129.754 27.4702L129.757 27.465Z" fill="black"/>
<path d="M145.669 27.4676C144.228 27.4676 142.921 27.2598 141.746 26.8414C140.57 26.4257 139.519 25.7995 138.589 24.9654L140.483 22.6659C141.371 23.3259 142.246 23.8196 143.105 24.1495C143.967 24.4795 144.82 24.6432 145.666 24.6432C146.928 24.6432 147.877 24.451 148.509 24.0638C149.142 23.6766 149.458 23.0998 149.458 22.3255C149.458 21.7279 149.247 21.3069 148.823 21.0601C148.401 20.8133 147.845 20.6522 147.163 20.5742C146.478 20.4963 145.745 20.4339 144.963 20.3819C144.304 20.33 143.653 20.2494 143.005 20.1429C142.357 20.0338 141.767 19.8389 141.234 19.5557C140.702 19.2724 140.275 18.8541 139.959 18.2981C139.64 17.742 139.482 16.9963 139.482 16.0583C139.482 14.359 140.009 13.0884 141.063 12.2439C142.117 11.3994 143.687 10.9785 145.777 10.9785C147.05 10.9785 148.235 11.1474 149.331 11.4878C150.428 11.8282 151.455 12.3478 152.417 13.0468L150.491 15.3463C149.677 14.8319 148.876 14.4447 148.088 14.1875C147.3 13.9302 146.531 13.8003 145.777 13.8003C144.691 13.8003 143.877 13.9822 143.334 14.3486C142.792 14.7149 142.52 15.2632 142.52 15.9933C142.52 16.4766 142.707 16.8248 143.084 17.0353C143.461 17.2457 143.956 17.3834 144.573 17.4432C145.189 17.5056 145.851 17.5627 146.562 17.6121C147.242 17.6537 147.927 17.729 148.623 17.8356C149.316 17.9447 149.956 18.1526 150.541 18.4618C151.126 18.771 151.595 19.2283 151.951 19.8363C152.306 20.4443 152.483 21.2732 152.483 22.3229C152.483 24.043 151.916 25.3292 150.783 26.1841C149.65 27.0389 147.945 27.465 145.672 27.465L145.669 27.4676Z" fill="black"/>
<path d="M159.748 11.2051V20.9489C159.748 22.0714 160.038 22.9392 160.617 23.5498C161.197 24.163 162.014 24.4696 163.068 24.4696C164.122 24.4696 164.933 24.1942 165.503 23.6434C166.072 23.0925 166.356 22.3182 166.356 21.3204L166.575 24.6723C166.283 25.3921 165.771 26.0391 165.041 26.6107C164.312 27.1823 163.355 27.4681 162.175 27.4681C160.38 27.4681 158.994 26.8991 158.017 25.761C157.039 24.6229 156.552 23.0198 156.552 20.9515V11.2077H159.745L159.748 11.2051ZM166.356 27.2343V11.2051H169.534V27.2343H166.356Z" fill="black"/>
<path d="M174.387 27.2338V11.2046H177.58V27.2338H174.387ZM184.096 27.2338V17.5211C184.096 16.3883 183.814 15.5126 183.251 14.8968C182.687 14.2784 181.888 13.9692 180.855 13.9692C179.823 13.9692 179.006 14.242 178.437 14.7877C177.867 15.3333 177.583 16.0998 177.583 17.0872L177.254 13.9978C177.754 13.0312 178.41 12.2829 179.219 11.758C180.028 11.2331 180.924 10.9707 181.904 10.9707C183.617 10.9707 184.942 11.5397 185.883 12.6778C186.824 13.8159 187.293 15.4243 187.293 17.5029V27.2312H184.099L184.096 27.2338ZM193.806 27.2338V17.5211C193.806 16.3883 193.511 15.5126 192.921 14.8968C192.331 14.2784 191.493 13.9692 190.407 13.9692C189.416 13.9692 188.647 14.268 188.104 14.8656C187.561 15.4632 187.29 16.3077 187.29 17.399L186.647 14.3096C187.169 13.2391 187.849 12.4154 188.684 11.8386C189.519 11.2617 190.444 10.9733 191.456 10.9733C193.221 10.9733 194.586 11.5423 195.55 12.6804C196.515 13.8185 197 15.4269 197 17.5055V27.2338H193.806Z" fill="black"/>
<path d="M39.416 35.0595H1.01728C0.234705 35.0595 -0.252755 34.2254 0.137213 33.5576L19.3353 0.766457C19.7252 0.0986811 20.7054 0.0986811 21.0954 0.766457L24.5893 6.73747C24.7711 7.04667 24.7711 7.42863 24.5893 7.74043L13.9995 25.8301C13.6096 26.4979 14.097 27.332 14.8796 27.332H36.0618C36.4254 27.332 36.76 27.5217 36.9418 27.8335L40.2961 33.5602C40.6887 34.228 40.1986 35.0647 39.416 35.0647V35.0595Z" fill="black"/>
<path d="M44.2541 27.3295H37.1662C36.8447 27.3295 36.5496 27.1606 36.3889 26.8877L25.143 7.67814C24.9823 7.40532 24.9823 7.06753 25.143 6.79471L28.687 0.74315C29.0322 0.153325 29.8964 0.153325 30.2416 0.74315L45.0314 26.0043C45.3766 26.5941 44.9445 27.3321 44.2541 27.3321V27.3295Z" fill="black"/>
</svg>
