<svg width="185" height="44" viewBox="0 0 185 44" fill="none" xmlns="http://www.w3.org/2000/svg">
<path d="M21.907 33.9738V43.3299H-0.000976562V10.2246H10.3769V33.9738H21.907Z" fill="black"/>
<path d="M21.9068 10.2246H12.1699V33.1062H21.9068V10.2246Z" fill="black"/>
<path d="M21.9068 0H12.1699V9.25002H21.9068V0Z" fill="black"/>
<path d="M31.0193 10.8438H33.9769V29.6637H43.7177V31.9649H31.0166V10.8438H31.0193Z" fill="black"/>
<path d="M61.2175 24.2432C61.2175 29.8557 57.0168 32.3123 53.0867 32.3123C48.653 32.3123 45.2266 29.3172 45.2266 24.5057C45.2266 19.4344 48.8245 16.4688 53.3466 16.4688C57.8687 16.4688 61.2175 19.63 61.2175 24.2459V24.2432ZM48.2538 24.42C48.2538 27.7446 50.3086 30.2468 53.21 30.2468C56.1113 30.2468 58.1929 27.7768 58.1929 24.337C58.1929 21.7732 56.7998 18.5316 53.2662 18.5316C49.7326 18.5316 48.2565 21.5455 48.2565 24.42H48.2538Z" fill="black"/>
<path d="M79.1179 16.8117C79.0348 17.8833 78.9812 19.1129 78.9812 20.9587V29.7592C78.9812 33.266 78.2097 35.369 76.6478 36.6978C75.0404 38.0614 72.7552 38.5169 70.6924 38.5169C68.6296 38.5169 66.5614 38.0882 65.2353 37.2684L65.9801 35.1494C67.0704 35.7816 68.7528 36.3629 70.7942 36.3629C73.8295 36.3629 76.0584 34.8895 76.0584 31.0532V29.3627H75.9915C75.0967 30.7853 73.3152 31.9158 70.7969 31.9158C66.7195 31.9158 63.8262 28.701 63.8262 24.5031C63.8262 19.3648 67.4321 16.4688 71.2068 16.4688C74.0438 16.4688 75.5789 17.8216 76.3076 19.0834H76.3746L76.4978 16.8144H79.1205L79.1179 16.8117ZM76.0236 22.7724C76.0236 22.3224 75.9808 21.9098 75.8602 21.5401C75.311 19.9354 73.8751 18.6066 71.6837 18.6066C68.8466 18.6066 66.8132 20.8302 66.8132 24.353C66.8132 27.3187 68.4662 29.8128 71.6542 29.8128C73.5 29.8128 75.1529 28.7332 75.7905 26.9704C75.9486 26.5257 76.0236 25.9872 76.0236 25.505V22.7724Z" fill="black"/>
<path d="M98.7057 24.2432C98.7057 29.8557 94.5051 32.3123 90.575 32.3123C86.1413 32.3123 82.7148 29.3172 82.7148 24.5057C82.7148 19.4344 86.3127 16.4688 90.8349 16.4688C95.357 16.4688 98.7057 19.63 98.7057 24.2459V24.2432ZM85.7421 24.42C85.7421 27.7446 87.7969 30.2468 90.6982 30.2468C93.5996 30.2468 95.6812 27.7768 95.6812 24.337C95.6812 21.7732 94.2881 18.5316 90.7545 18.5316C87.2209 18.5316 85.7448 21.5455 85.7448 24.42H85.7421Z" fill="black"/>
<path d="M105.79 12.5271C105.79 13.4647 105.08 14.2389 103.898 14.2389C102.821 14.2389 102.101 13.4647 102.104 12.5271C102.104 11.5814 102.862 10.8125 103.952 10.8125C105.042 10.8125 105.782 11.5653 105.79 12.5271ZM102.468 31.9658V16.8108H105.425V31.9658H102.468Z" fill="black"/>
<path d="M110.373 21.7478C110.373 19.8163 110.317 18.241 110.239 16.8104H112.897L113.06 19.393H113.127C114.317 17.5445 116.275 16.4648 118.93 16.4648C122.889 16.4648 125.871 19.5564 125.871 24.1562C125.871 29.6187 122.268 32.3111 118.437 32.3111C116.251 32.3111 114.373 31.4297 113.398 29.9241H113.331V38.1727H110.376V21.7505L110.373 21.7478ZM113.328 25.7984C113.328 26.1869 113.371 26.5673 113.457 26.9183C113.993 28.8444 115.793 30.1518 117.901 30.1518C121.054 30.1518 122.873 27.7541 122.873 24.2821C122.873 21.2576 121.164 18.6589 118.016 18.6589C115.991 18.6589 114.081 19.9877 113.518 22.0586C113.422 22.4149 113.328 22.8167 113.328 23.1784V25.7984Z" fill="black"/>
<path d="M129.192 29.1618C130.087 29.6815 131.652 30.2415 133.133 30.2415C135.303 30.2415 136.31 29.2529 136.31 27.9857C136.31 26.7186 135.445 25.9658 133.272 25.2103C130.317 24.2191 128.919 22.7296 128.927 20.9132C128.927 18.4726 131.068 16.4688 134.582 16.4688C136.246 16.4688 137.679 16.8867 138.588 17.401L137.848 19.4049C137.219 19.0379 136.021 18.5128 134.494 18.5128C132.739 18.5128 131.786 19.4505 131.786 20.5917C131.786 21.8455 132.747 22.4054 134.891 23.177C137.709 24.1494 139.172 25.4675 139.18 27.7312C139.18 30.4183 136.927 32.2989 133.066 32.2989C131.277 32.2989 129.621 31.8703 128.472 31.2434L129.192 29.1645V29.1618Z" fill="black"/>
<path d="M156.674 27.8197C156.674 29.4084 156.73 30.7693 156.81 31.9668H154.182L154.024 29.4888H153.941C153.188 30.7077 151.46 32.3124 148.53 32.3124C145.971 32.3124 142.898 30.9836 142.898 25.6712V16.8145H145.856V25.189C145.856 28.0743 146.826 30.0406 149.51 30.0406C151.503 30.0406 152.894 28.7467 153.446 27.5117C153.598 27.1152 153.716 26.6222 153.716 26.0971V16.8145H156.674V27.8224V27.8197Z" fill="black"/>
<path d="M161.63 20.9039C161.63 19.3233 161.574 18.0669 161.496 16.8104H164.081L164.237 19.251H164.32C165.231 17.8097 166.755 16.4675 169.482 16.4675C171.698 16.4675 173.391 17.7186 174.09 19.5055H174.157C174.679 18.6429 175.325 17.9892 176.003 17.5311C176.991 16.8426 178.058 16.4648 179.601 16.4648C181.784 16.4648 184.999 17.7695 184.999 23.0391V31.9628H182.098V23.3927C182.098 20.4565 180.929 18.7179 178.551 18.7179C176.847 18.7179 175.537 19.8672 175.014 21.1986C174.872 21.5978 174.77 22.0907 174.77 22.581V31.9628H171.869V22.8676C171.869 20.4539 170.717 18.7179 168.472 18.7179C166.618 18.7179 165.26 20.0895 164.767 21.4692C164.62 21.8737 164.542 22.3533 164.542 22.8274V31.9628H161.641V20.9013L161.63 20.9039Z" fill="black"/>
</svg>
