<svg width="161" height="37" viewBox="0 0 161 37" fill="none" xmlns="http://www.w3.org/2000/svg">
<path d="M4.60498 10.003C7.14447 10.003 9.20313 7.91283 9.20313 5.3345C9.20313 2.75617 7.14447 0.666016 4.60498 0.666016C2.0655 0.666016 0.00683594 2.75617 0.00683594 5.3345C0.00683594 7.91283 2.0655 10.003 4.60498 10.003Z" fill="black"/>
<path d="M6.59279 10.9844H2.57069C1.1504 10.9844 -0.000976562 12.1534 -0.000976562 13.5954V17.679C-0.000976562 19.121 1.1504 20.29 2.57069 20.29H6.59279C8.01308 20.29 9.16446 19.121 9.16446 17.679V13.5954C9.16446 12.1534 8.01308 10.9844 6.59279 10.9844Z" fill="black"/>
<path d="M6.59767 21.2695H2.57558C1.15528 21.2695 0.00390625 22.4385 0.00390625 23.8805V27.9641C0.00390625 29.4062 1.15528 30.5752 2.57558 30.5752H6.59767C8.01796 30.5752 9.16934 29.4062 9.16934 27.9641V23.8805C9.16934 22.4385 8.01796 21.2695 6.59767 21.2695Z" fill="black"/>
<path d="M16.6074 21.2695H12.5853C11.165 21.2695 10.0137 22.4385 10.0137 23.8805V27.9641C10.0137 29.4062 11.165 30.5752 12.5853 30.5752H16.6074C18.0277 30.5752 19.1791 29.4062 19.1791 27.9641V23.8805C19.1791 22.4385 18.0277 21.2695 16.6074 21.2695Z" fill="black"/>
<path d="M38.5775 22.3342C38.5775 27.9688 34.4217 30.4362 30.5359 30.4362C26.1512 30.4362 22.7617 27.4283 22.7617 22.598C22.7617 17.5065 26.3183 14.5273 30.793 14.5273C35.2678 14.5273 38.5775 17.6997 38.5775 22.3369V22.3342ZM25.7551 22.5118C25.7551 25.8513 27.7868 28.3631 30.6567 28.3631C33.5267 28.3631 35.5841 25.8826 35.5841 22.4309C35.5841 19.8564 34.2057 16.6005 30.7108 16.6005C27.2159 16.6005 25.7551 19.6266 25.7551 22.5118Z" fill="black"/>
<path d="M56.2825 14.872C56.2002 15.9477 56.1462 17.1827 56.1462 19.0365V27.8722C56.1462 31.3945 55.3824 33.5068 53.8368 34.841C52.2475 36.2118 49.987 36.6661 47.9451 36.6661C45.9032 36.6661 43.8613 36.2353 42.5472 35.4128L43.2852 33.2848C44.3653 33.9193 46.0266 34.5042 48.0454 34.5042C51.0465 34.5042 53.253 33.0263 53.253 29.1725V27.4753H53.1862C52.3015 28.9062 50.5399 30.0393 48.048 30.0393C44.0156 30.0393 41.1533 26.8121 41.1533 22.5953C41.1533 17.436 44.7202 14.5273 48.4543 14.5273C51.26 14.5273 52.7798 15.8851 53.4999 17.1514H53.5668L53.6902 14.872H56.285H56.2825ZM53.2222 20.8564C53.2222 20.4047 53.1785 19.9896 53.0602 19.6188C52.5175 18.0078 51.098 16.6736 48.9301 16.6736C46.1244 16.6736 44.1133 18.906 44.1133 22.4439C44.1133 25.4205 45.7463 27.9244 48.9018 27.9244C50.7276 27.9244 52.3632 26.8382 52.9933 25.0706C53.1502 24.6241 53.2247 24.081 53.2247 23.6006V20.8564H53.2222Z" fill="black"/>
<path d="M75.6576 22.3342C75.6576 27.9688 71.5018 30.4362 67.616 30.4362C63.2313 30.4362 59.8418 27.4283 59.8418 22.598C59.8418 17.5065 63.3984 14.5273 67.8731 14.5273C72.3478 14.5273 75.6576 17.6997 75.6576 22.3369V22.3342ZM62.8352 22.5118C62.8352 25.8513 64.8668 28.3631 67.7368 28.3631C70.6068 28.3631 72.6641 25.8826 72.6641 22.4309C72.6641 19.8564 71.2857 16.6005 67.7908 16.6005C64.2959 16.6005 62.8352 19.6266 62.8352 22.5118Z" fill="black"/>
<path d="M82.6636 10.5709C82.6636 11.5135 81.9615 12.2916 80.794 12.2916C79.7293 12.2916 79.017 11.5135 79.0195 10.5709C79.0195 9.62051 79.7705 8.84766 80.848 8.84766C81.9255 8.84766 82.6584 9.60223 82.6662 10.5709H82.6636ZM79.377 30.0908V14.8739H82.3036V30.0908H79.377Z" fill="black"/>
<path d="M87.1972 19.8329C87.1972 17.8929 87.1432 16.3133 87.0635 14.8746H89.6917L89.8537 17.4673H89.9206C91.0959 15.6109 93.0323 14.5273 95.6606 14.5273C99.5746 14.5273 102.524 17.6292 102.524 22.2507C102.524 27.7364 98.96 30.4388 95.172 30.4388C93.0092 30.4388 91.1524 29.5537 90.1881 28.0419H90.1212V36.324H87.1972V19.8329ZM90.1212 23.9009C90.1212 24.2899 90.1649 24.6711 90.2472 25.0262C90.777 26.961 92.5591 28.2717 94.6448 28.2717C97.7616 28.2717 99.5618 25.8643 99.5618 22.376C99.5618 19.3394 97.8722 16.7284 94.7579 16.7284C92.7571 16.7284 90.867 18.0627 90.3089 20.1436C90.2138 20.5013 90.1212 20.9034 90.1212 21.269V23.9009Z" fill="black"/>
<path d="M105.811 27.2743C106.698 27.7939 108.243 28.3578 109.709 28.3578C111.857 28.3578 112.852 27.3657 112.852 26.0915C112.852 24.8173 111.995 24.0627 109.846 23.3056C106.924 22.3108 105.541 20.8146 105.548 18.9895C105.548 16.5378 107.665 14.5273 111.142 14.5273C112.788 14.5273 114.205 14.9477 115.102 15.4647L114.372 17.4778C113.749 17.1096 112.564 16.5822 111.054 16.5822C109.318 16.5822 108.375 17.5248 108.375 18.671C108.375 19.9295 109.326 20.4935 111.445 21.2664C114.233 22.2429 115.681 23.5667 115.688 25.8382C115.688 28.5354 113.461 30.4232 109.64 30.4232C107.871 30.4232 106.232 29.9923 105.096 29.3631L105.808 27.2743H105.811Z" fill="black"/>
<path d="M132.99 25.9254C132.99 27.5208 133.044 28.8863 133.124 30.09H130.526L130.369 27.6017H130.287C129.541 28.8263 127.834 30.4373 124.935 30.4373C122.405 30.4373 119.365 29.103 119.365 23.7687V14.8756H122.292V23.2831C122.292 26.1813 123.251 28.1552 125.905 28.1552C127.875 28.1552 129.253 26.8576 129.796 25.6147C129.948 25.2152 130.063 24.7218 130.063 24.1943V14.873H132.99V25.9254Z" fill="black"/>
<path d="M137.893 18.983C137.893 17.3956 137.839 16.1344 137.759 14.8733H140.315L140.469 17.3224H140.552C141.452 15.8759 142.959 14.5261 145.656 14.5261C147.847 14.5261 149.522 15.7819 150.213 17.5757H150.28C150.797 16.7089 151.435 16.0535 152.104 15.5939C153.083 14.902 154.135 14.5234 155.66 14.5234C157.82 14.5234 160.999 15.8342 160.999 21.1267V30.0877H158.129V21.4818C158.129 18.534 156.974 16.7898 154.621 16.7898C152.934 16.7898 151.641 17.9439 151.121 19.2807C150.98 19.6802 150.879 20.1763 150.879 20.6697V30.0903H148.009V20.957C148.009 18.5339 146.87 16.7898 144.648 16.7898C142.817 16.7898 141.472 18.1658 140.984 19.5522C140.84 19.9569 140.76 20.44 140.76 20.9152V30.0877H137.89V18.9804L137.893 18.983Z" fill="black"/>
</svg>
