<svg width="121" height="48" viewBox="0 0 121 48" fill="none" xmlns="http://www.w3.org/2000/svg">
<path d="M7.42021 1.44102C7.42021 1.44102 25.872 -1.23282 35.5745 2.43384C43.2733 5.34328 53.7487 12.3619 53.7487 12.3619C53.7487 12.3619 70.7673 10.5568 81.7979 15.7916C85.8665 17.7225 86 25.3587 86 25.3587V43.5H7L7.42021 1.44102Z" fill="#1B357E"/>
<path d="M8 1.5C8 1.5 25.8931 2.65009 34.5889 6.09873C41.4888 8.83517 50.8773 15.4365 50.8773 15.4365C50.8773 15.4365 68.3747 13.3811 78.2607 18.3047C81.9071 20.1207 82.6493 22.1472 82.6493 22.1472L84.8383 27.6604L90 45.5L9.35596 44.0655L8 1.5Z" fill="#F3F4F6"/>
<rect y="0.5" width="10" height="47" fill="#F3F4F6"/>
<path d="M10.7666 2.32227L19.7514 3.40136L28.0488 4.96132C28.0488 4.96132 33.4201 5.77213 38.9727 9.4882C44.5253 13.2043 49.0025 15.6643 49.0025 15.6643L18.6149 15.6643L10.7666 2.32227Z" fill="#1B357E"/>
<path d="M8 1.5L18.2975 3.51695L26.5124 5.29661C26.5124 5.29661 31.8347 6.24576 37.2727 10.161C42.7107 14.0763 50 15.5 50 15.5L26.5124 13.4831L18.2975 15.5L8 1.5Z" fill="#F3F4F6"/>
<path d="M22.7056 33.912C23.8162 33.912 24.7002 34.2747 25.3576 35C26.0262 35.714 26.3606 36.7 26.3606 37.958V43.5H23.4706V38.349C23.4706 37.7143 23.3062 37.2213 22.9776 36.87C22.6489 36.5187 22.2069 36.343 21.6516 36.343C21.0962 36.343 20.6542 36.5187 20.3256 36.87C19.9969 37.2213 19.8326 37.7143 19.8326 38.349V43.5H16.9256V34.014H19.8326V35.272C20.1272 34.8527 20.5239 34.524 21.0226 34.286C21.5212 34.0367 22.0822 33.912 22.7056 33.912ZM32.6987 43.636C31.7693 43.636 30.9307 43.4377 30.1827 43.041C29.446 42.6443 28.8623 42.0777 28.4317 41.341C28.0123 40.6043 27.8027 39.743 27.8027 38.757C27.8027 37.7823 28.018 36.9267 28.4487 36.19C28.8793 35.442 29.4687 34.8697 30.2167 34.473C30.9647 34.0763 31.8033 33.878 32.7327 33.878C33.662 33.878 34.5007 34.0763 35.2487 34.473C35.9967 34.8697 36.586 35.442 37.0167 36.19C37.4473 36.9267 37.6627 37.7823 37.6627 38.757C37.6627 39.7317 37.4417 40.593 36.9997 41.341C36.569 42.0777 35.974 42.6443 35.2147 43.041C34.4667 43.4377 33.628 43.636 32.6987 43.636ZM32.6987 41.12C33.254 41.12 33.7243 40.916 34.1097 40.508C34.5063 40.1 34.7047 39.5163 34.7047 38.757C34.7047 37.9977 34.512 37.414 34.1267 37.006C33.7527 36.598 33.288 36.394 32.7327 36.394C32.166 36.394 31.6957 36.598 31.3217 37.006C30.9477 37.4027 30.7607 37.9863 30.7607 38.757C30.7607 39.5163 30.942 40.1 31.3047 40.508C31.6787 40.916 32.1433 41.12 32.6987 41.12ZM44.4919 41.035V43.5H43.0129C41.9589 43.5 41.1372 43.245 40.5479 42.735C39.9585 42.2137 39.6639 41.3693 39.6639 40.202V36.428H38.5079V34.014H39.6639V31.702H42.5709V34.014H44.4749V36.428H42.5709V40.236C42.5709 40.5193 42.6389 40.7233 42.7749 40.848C42.9109 40.9727 43.1375 41.035 43.4549 41.035H44.4919ZM47.5731 33.028C47.0631 33.028 46.6438 32.8807 46.3151 32.586C45.9978 32.28 45.8391 31.906 45.8391 31.464C45.8391 31.0107 45.9978 30.6367 46.3151 30.342C46.6438 30.036 47.0631 29.883 47.5731 29.883C48.0718 29.883 48.4798 30.036 48.7971 30.342C49.1258 30.6367 49.2901 31.0107 49.2901 31.464C49.2901 31.906 49.1258 32.28 48.7971 32.586C48.4798 32.8807 48.0718 33.028 47.5731 33.028ZM49.0181 34.014V43.5H46.1111V34.014H49.0181ZM55.4428 43.636C54.5135 43.636 53.6748 43.4377 52.9268 43.041C52.1901 42.6443 51.6065 42.0777 51.1758 41.341C50.7565 40.6043 50.5468 39.743 50.5468 38.757C50.5468 37.7823 50.7621 36.9267 51.1928 36.19C51.6235 35.442 52.2128 34.8697 52.9608 34.473C53.7088 34.0763 54.5475 33.878 55.4768 33.878C56.4061 33.878 57.2448 34.0763 57.9928 34.473C58.7408 34.8697 59.3301 35.442 59.7608 36.19C60.1915 36.9267 60.4068 37.7823 60.4068 38.757C60.4068 39.7317 60.1858 40.593 59.7438 41.341C59.3131 42.0777 58.7181 42.6443 57.9588 43.041C57.2108 43.4377 56.3721 43.636 55.4428 43.636ZM55.4428 41.12C55.9981 41.12 56.4685 40.916 56.8538 40.508C57.2505 40.1 57.4488 39.5163 57.4488 38.757C57.4488 37.9977 57.2561 37.414 56.8708 37.006C56.4968 36.598 56.0321 36.394 55.4768 36.394C54.9101 36.394 54.4398 36.598 54.0658 37.006C53.6918 37.4027 53.5048 37.9863 53.5048 38.757C53.5048 39.5163 53.6861 40.1 54.0488 40.508C54.4228 40.916 54.8875 41.12 55.4428 41.12ZM67.729 33.912C68.8397 33.912 69.7237 34.2747 70.381 35C71.0497 35.714 71.384 36.7 71.384 37.958V43.5H68.494V38.349C68.494 37.7143 68.3297 37.2213 68.001 36.87C67.6724 36.5187 67.2304 36.343 66.675 36.343C66.1197 36.343 65.6777 36.5187 65.349 36.87C65.0204 37.2213 64.856 37.7143 64.856 38.349V43.5H61.949V34.014H64.856V35.272C65.1507 34.8527 65.5474 34.524 66.046 34.286C66.5447 34.0367 67.1057 33.912 67.729 33.912Z" fill="#121212"/>
<path d="M76.3111 35.595C76.6511 35.0737 77.0761 34.6657 77.5861 34.371C78.0961 34.065 78.6628 33.912 79.2861 33.912V36.989H78.4871C77.7618 36.989 77.2178 37.1477 76.8551 37.465C76.4924 37.771 76.3111 38.315 76.3111 39.097V43.5H73.4041V34.014H76.3111V35.595ZM82.1376 33.028C81.6276 33.028 81.2082 32.8807 80.8796 32.586C80.5622 32.28 80.4036 31.906 80.4036 31.464C80.4036 31.0107 80.5622 30.6367 80.8796 30.342C81.2082 30.036 81.6276 29.883 82.1376 29.883C82.6362 29.883 83.0442 30.036 83.3616 30.342C83.6902 30.6367 83.8546 31.0107 83.8546 31.464C83.8546 31.906 83.6902 32.28 83.3616 32.586C83.0442 32.8807 82.6362 33.028 82.1376 33.028ZM83.5826 34.014V43.5H80.6756V34.014H83.5826ZM85.1113 38.74C85.1113 37.7653 85.2926 36.9097 85.6553 36.173C86.0293 35.4363 86.5336 34.8697 87.1683 34.473C87.8029 34.0763 88.5113 33.878 89.2933 33.878C89.9166 33.878 90.4833 34.0083 90.9933 34.269C91.5146 34.5297 91.9226 34.881 92.2173 35.323V30.92H95.1243V43.5H92.2173V42.14C91.9453 42.5933 91.5543 42.956 91.0443 43.228C90.5456 43.5 89.9619 43.636 89.2933 43.636C88.5113 43.636 87.8029 43.4377 87.1683 43.041C86.5336 42.633 86.0293 42.0607 85.6553 41.324C85.2926 40.576 85.1113 39.7147 85.1113 38.74ZM92.2173 38.757C92.2173 38.0317 92.0133 37.4593 91.6053 37.04C91.2086 36.6207 90.7213 36.411 90.1433 36.411C89.5653 36.411 89.0723 36.6207 88.6643 37.04C88.2676 37.448 88.0693 38.0147 88.0693 38.74C88.0693 39.4653 88.2676 40.0433 88.6643 40.474C89.0723 40.8933 89.5653 41.103 90.1433 41.103C90.7213 41.103 91.2086 40.8933 91.6053 40.474C92.0133 40.0547 92.2173 39.4823 92.2173 38.757ZM106.169 38.604C106.169 38.876 106.152 39.1593 106.118 39.454H99.5393C99.5847 40.0433 99.7717 40.4967 100.1 40.814C100.44 41.12 100.854 41.273 101.341 41.273C102.067 41.273 102.571 40.967 102.854 40.355H105.948C105.79 40.9783 105.501 41.5393 105.081 42.038C104.673 42.5367 104.158 42.9277 103.534 43.211C102.911 43.4943 102.214 43.636 101.443 43.636C100.514 43.636 99.6867 43.4377 98.9613 43.041C98.236 42.6443 97.6693 42.0777 97.2613 41.341C96.8533 40.6043 96.6493 39.743 96.6493 38.757C96.6493 37.771 96.8477 36.9097 97.2443 36.173C97.6523 35.4363 98.219 34.8697 98.9443 34.473C99.6697 34.0763 100.503 33.878 101.443 33.878C102.361 33.878 103.177 34.0707 103.891 34.456C104.605 34.8413 105.161 35.391 105.557 36.105C105.965 36.819 106.169 37.652 106.169 38.604ZM103.194 37.839C103.194 37.3403 103.024 36.9437 102.684 36.649C102.344 36.3543 101.919 36.207 101.409 36.207C100.922 36.207 100.508 36.3487 100.168 36.632C99.8397 36.9153 99.6357 37.3177 99.5563 37.839H103.194ZM111.562 43.636C110.735 43.636 109.998 43.4943 109.352 43.211C108.706 42.9277 108.196 42.5423 107.822 42.055C107.448 41.5563 107.238 41.001 107.193 40.389H110.066C110.1 40.7177 110.253 40.984 110.525 41.188C110.797 41.392 111.131 41.494 111.528 41.494C111.891 41.494 112.168 41.426 112.361 41.29C112.565 41.1427 112.667 40.9557 112.667 40.729C112.667 40.457 112.525 40.2587 112.242 40.134C111.959 39.998 111.5 39.8507 110.865 39.692C110.185 39.5333 109.618 39.369 109.165 39.199C108.712 39.0177 108.321 38.74 107.992 38.366C107.663 37.9807 107.499 37.465 107.499 36.819C107.499 36.275 107.646 35.782 107.941 35.34C108.247 34.8867 108.689 34.5297 109.267 34.269C109.856 34.0083 110.553 33.878 111.358 33.878C112.548 33.878 113.483 34.1727 114.163 34.762C114.854 35.3513 115.251 36.1333 115.353 37.108H112.667C112.622 36.7793 112.474 36.5187 112.225 36.326C111.987 36.1333 111.67 36.037 111.273 36.037C110.933 36.037 110.672 36.105 110.491 36.241C110.31 36.3657 110.219 36.5413 110.219 36.768C110.219 37.04 110.361 37.244 110.644 37.38C110.939 37.516 111.392 37.652 112.004 37.788C112.707 37.9693 113.279 38.1507 113.721 38.332C114.163 38.502 114.548 38.7853 114.877 39.182C115.217 39.5673 115.393 40.0887 115.404 40.746C115.404 41.3013 115.245 41.8 114.928 42.242C114.622 42.6727 114.174 43.0127 113.585 43.262C113.007 43.5113 112.333 43.636 111.562 43.636Z" fill="#1B357E"/>
</svg>
